<svg width="400" height="400" viewBox="0 0 400 400" fill="none" xmlns="http://www.w3.org/2000/svg">
  <!-- Background -->
  <rect width="400" height="400" fill="#FFFFFF"/>
  
  <!-- Outer Circular Rings -->
  <circle cx="200" cy="200" r="175" stroke="#000000" stroke-width="6" fill="none"/>
  <circle cx="200" cy="200" r="167" stroke="#000000" stroke-width="3" fill="none"/>
  <circle cx="200" cy="200" r="160" stroke="#000000" stroke-width="2" fill="none"/>
  
  <!-- Arc at top (partial ring) -->
  <path d="M 80 150 Q 200 90 320 150" stroke="#000000" stroke-width="5" fill="none" stroke-linecap="round"/>
  <path d="M 85 155 Q 200 98 315 155" stroke="#000000" stroke-width="3" fill="none" stroke-linecap="round"/>
  
  <!-- 2025 Text at Top (curved) -->
  <path id="yearCurve" d="M 135 120 Q 200 105 265 120" fill="none"/>
  <text font-family="Arial, sans-serif" font-size="28" font-weight="700" fill="#000000" letter-spacing="8">
    <textPath href="#yearCurve" startOffset="50%" text-anchor="middle">2025</textPath>
  </text>
  
  <!-- Globe Main Circle -->
  <circle cx="200" cy="220" r="110" stroke="#000000" stroke-width="2" fill="none"/>
  
  <!-- Globe Grid - Vertical Lines (Longitude) -->
  <g stroke="#000000" stroke-width="1.5" fill="none">
    <ellipse cx="200" cy="220" rx="110" ry="110"/>
    <ellipse cx="200" cy="220" rx="92" ry="110"/>
    <ellipse cx="200" cy="220" rx="74" ry="110"/>
    <ellipse cx="200" cy="220" rx="56" ry="110"/>
    <ellipse cx="200" cy="220" rx="38" ry="110"/>
    <ellipse cx="200" cy="220" rx="20" ry="110"/>
    <line x1="200" y1="110" x2="200" y2="330"/>
  </g>
  
  <!-- Globe Grid - Horizontal Lines (Latitude) -->
  <g stroke="#000000" stroke-width="1.5" fill="none">
    <line x1="90" y1="220" x2="310" y2="220"/>
    <ellipse cx="200" cy="220" rx="110" ry="75"/>
    <ellipse cx="200" cy="220" rx="110" ry="50"/>
    <ellipse cx="200" cy="220" rx="110" ry="30"/>
    <ellipse cx="200" cy="220" rx="105" ry="15"/>
  </g>
  
  <!-- Globe Bottom Ellipse (3D effect) -->
  <ellipse cx="200" cy="330" rx="65" ry="12" fill="#000000" opacity="0.2"/>
  
  <!-- TWINLOGY Text (Big, Bold, straight across globe) -->
  <text x="200" y="230" font-family="Arial, sans-serif" font-size="56" font-weight="900" fill="#000000" letter-spacing="2" text-anchor="middle">
    TWINLOGY
  </text>
  
  <!-- Right Side Stars/Sparkles -->
  <g fill="#000000">
    <!-- Large Star (top right) -->
    <path d="M 335 110 L 342 125 L 358 128 L 345 140 L 348 156 L 335 148 L 322 156 L 325 140 L 312 128 L 328 125 Z"/>
    
    <!-- Medium Star (right) -->
    <path d="M 350 175 L 354 184 L 364 186 L 357 193 L 359 203 L 350 198 L 341 203 L 343 193 L 336 186 L 346 184 Z"/>
    
    <!-- Small stars -->
    <circle cx="325" cy="145" r="3"/>
    <circle cx="345" cy="160" r="2.5"/>
  </g>
  
  <!-- Left Side Stars/Sparkles -->
  <g fill="#000000">
    <!-- Star (left) -->
    <path d="M 65 190 L 69 199 L 79 201 L 72 208 L 74 218 L 65 213 L 56 218 L 58 208 L 51 201 L 61 199 Z"/>
    
    <!-- Small stars -->
    <circle cx="55" cy="210" r="2.5"/>
  </g>
  
  <!-- Signal/Connection Lines (left bottom) -->
  <g stroke="#000000" stroke-width="3" fill="none" stroke-linecap="round">
    <path d="M 60 265 L 45 258 L 35 250"/>
    <path d="M 60 280 L 45 287 L 35 295"/>
  </g>
  
  <!-- Signal/Connection Lines (right bottom) -->
  <g stroke="#000000" stroke-width="3" fill="none" stroke-linecap="round">
    <path d="M 340 275 L 355 268 L 365 260"/>
    <path d="M 340 290 L 355 297 L 365 305"/>
  </g>
  
  <!-- Bottom Circular Ring with Text -->
  <circle cx="200" cy="200" r="150" stroke="#000000" stroke-width="4" fill="none"/>
  <circle cx="200" cy="200" r="142" stroke="#000000" stroke-width="2" fill="none"/>
  
  <!-- TWINLOGY-IDN Text at Bottom (curved along circle) -->
  <path id="bottomTextCurve" d="M 80 270 Q 200 310 320 270" fill="none"/>
  <text font-family="Arial, sans-serif" font-size="24" font-weight="700" fill="#000000" letter-spacing="12">
    <textPath href="#bottomTextCurve" startOffset="50%" text-anchor="middle">
      TWINLOGY-IDN
    </textPath>
  </text>
</svg>
